<?xml version="1.0" encoding="UTF-8"?>
<!DOCTYPE svg PUBLIC "-//W3C//DTD SVG 1.1//EN" "http://www.w3.org/Graphics/SVG/1.1/DTD/svg11.dtd">
<svg xmlns="http://www.w3.org/2000/svg" version="1.1" width="500px" height="500px" style="shape-rendering:geometricPrecision; text-rendering:geometricPrecision; image-rendering:optimizeQuality; fill-rule:evenodd; clip-rule:evenodd" xmlns:xlink="http://www.w3.org/1999/xlink">
<g><path style="opacity:1" fill="#fefefe" d="M -0.5,-0.5 C 166.167,-0.5 332.833,-0.5 499.5,-0.5C 499.5,166.167 499.5,332.833 499.5,499.5C 332.833,499.5 166.167,499.5 -0.5,499.5C -0.5,332.833 -0.5,166.167 -0.5,-0.5 Z"/></g>
<g><path style="opacity:1" fill="#104f5a" d="M 202.5,402.5 C 197.858,403.673 193.191,403.673 188.5,402.5C 180.101,401.934 173.935,397.934 170,390.5C 168.008,382.644 167.008,374.644 167,366.5C 163.428,361.03 160.095,355.364 157,349.5C 156.333,345.5 156.333,341.5 157,337.5C 163.756,323.898 168.09,309.565 170,294.5C 172.735,287.636 177.735,283.636 185,282.5C 190.949,284.944 197.116,286.61 203.5,287.5C 203.841,283.144 205.174,279.144 207.5,275.5C 205.536,268.288 205.036,260.955 206,253.5C 208.142,247.575 209.975,241.575 211.5,235.5C 210.596,229.215 208.762,223.215 206,217.5C 205.333,210.833 205.333,204.167 206,197.5C 208.427,191.723 209.927,185.723 210.5,179.5C 209.243,170.311 207.91,161.144 206.5,152C 207.017,145.264 208.017,138.597 209.5,132C 210.025,128.698 208.858,126.198 206,124.5C 201.548,115.942 201.381,107.275 205.5,98.5C 205.333,97.5 205.167,96.5 205,95.5C 192.998,79.9857 195.498,67.1524 212.5,57C 219.92,56.7373 227.254,57.0706 234.5,58C 239.854,54.6354 245.187,51.3021 250.5,48C 257.783,46.6744 264.616,47.8411 271,51.5C 273.966,49.9955 276.299,47.6622 278,44.5C 284.064,37.8181 291.564,35.6514 300.5,38C 326.321,43.4904 332.821,57.9904 320,81.5C 318.966,89.4221 319.966,97.0888 323,104.5C 324.695,118.394 323.195,131.894 318.5,145C 319.519,155.219 320.853,165.385 322.5,175.5C 322.398,184.845 320.564,193.845 317,202.5C 315.586,209.785 315.253,217.118 316,224.5C 317.667,230.5 319.333,236.5 321,242.5C 321.667,248.833 321.667,255.167 321,261.5C 319.215,265.852 318.048,270.352 317.5,275C 318.832,280.178 320.332,285.345 322,290.5C 323.085,298.994 321.252,306.827 316.5,314C 319.041,325.219 317.541,336.053 312,346.5C 304.867,355.938 298.367,365.771 292.5,376C 289.629,377.935 286.629,379.601 283.5,381C 279.848,381.499 276.182,381.665 272.5,381.5C 272.739,390.021 269.906,397.355 264,403.5C 264.389,414.587 261.389,424.587 255,433.5C 249.074,437.299 242.574,438.465 235.5,437C 230.647,434.541 225.647,432.541 220.5,431C 212.27,421.76 209.103,410.926 211,398.5C 210.667,398.167 210.333,397.833 210,397.5C 207.901,399.797 205.401,401.464 202.5,402.5 Z"/></g>
<g><path style="opacity:1" fill="#f9d84d" d="M 292.5,234.5 C 291.833,236.5 291.167,238.5 290.5,240.5C 289.566,239.432 289.232,238.099 289.5,236.5C 281.928,238.065 274.262,238.732 266.5,238.5C 265.742,245.109 262.075,247.276 255.5,245C 252.38,242.592 251.047,239.426 251.5,235.5C 249.485,234.076 247.152,233.41 244.5,233.5C 239.371,232.603 234.704,230.603 230.5,227.5C 230.167,227.833 229.833,228.167 229.5,228.5C 231.852,234.398 232.019,240.398 230,246.5C 228.729,249.484 227.562,252.484 226.5,255.5C 224.692,254.082 224.025,252.082 224.5,249.5C 226.129,244.984 227.129,240.317 227.5,235.5C 225.877,225.803 223.544,216.303 220.5,207C 221.84,200.478 223.34,193.978 225,187.5C 225.167,184.167 225.333,180.833 225.5,177.5C 225.085,168.926 224.085,160.426 222.5,152C 224.389,142.938 225.556,133.771 226,124.5C 230.358,117.88 231.358,110.88 229,103.5C 227.333,107.5 225.667,111.5 224,115.5C 220.276,117.042 218.443,115.709 218.5,111.5C 220.3,104.93 220.8,98.2632 220,91.5C 218.744,87.9837 216.744,84.9837 214,82.5C 211.895,77.3766 213.561,74.0433 219,72.5C 232.274,76.169 243.774,73.3357 253.5,64C 256.429,63.2228 259.263,63.3895 262,64.5C 261.681,66.7429 261.848,68.9095 262.5,71C 269.184,72.5192 275.184,71.1859 280.5,67C 284.356,62.6451 288.023,58.1451 291.5,53.5C 295.857,51.9814 298.857,53.4814 300.5,58C 296.831,66.843 294.498,76.0096 293.5,85.5C 294.268,93.3053 295.768,100.972 298,108.5C 298.843,117.13 297.676,125.463 294.5,133.5C 292.389,134.848 290.555,134.515 289,132.5C 288.483,129.08 287.65,125.747 286.5,122.5C 284.987,124.535 284.321,126.869 284.5,129.5C 284.496,136.643 287.329,142.309 293,146.5C 292.987,153.016 293.987,159.349 296,165.5C 296.667,171.167 296.667,176.833 296,182.5C 288.768,199.413 287.601,216.746 292.5,234.5 Z"/></g>
<g><path style="opacity:1" fill="#0e4bab" d="M 273.5,108.5 C 270.098,108.658 266.764,108.324 263.5,107.5C 261.164,105.996 259.331,103.996 258,101.5C 255.332,87.1692 261.166,81.0026 275.5,83C 280.442,85.882 282.776,90.2154 282.5,96C 282.775,102.554 279.775,106.721 273.5,108.5 Z"/></g>
<g><path style="opacity:1" fill="#617c8b" d="M 263.5,107.5 C 266.764,108.324 270.098,108.658 273.5,108.5C 270.696,109.638 267.696,109.805 264.5,109C 263.944,108.617 263.611,108.117 263.5,107.5 Z"/></g>
<g><path style="opacity:1" fill="#144cab" d="M 237.5,120.5 C 252.385,120.259 257.551,127.259 253,141.5C 248.509,146.259 243.009,147.759 236.5,146C 226.976,137.02 227.309,128.52 237.5,120.5 Z"/></g>
<g><path style="opacity:1" fill="#164cab" d="M 261.5,160.5 C 275.524,160.353 280.69,167.02 277,180.5C 275.833,183 274,184.833 271.5,186C 258.615,188.098 252.782,182.598 254,169.5C 255.614,165.723 258.114,162.723 261.5,160.5 Z"/></g>
<g><path style="opacity:1" fill="#0c4bac" d="M 244.5,233.5 C 246.515,234.924 248.848,235.59 251.5,235.5C 251.047,239.426 252.38,242.592 255.5,245C 262.075,247.276 265.742,245.109 266.5,238.5C 274.262,238.732 281.928,238.065 289.5,236.5C 289.232,238.099 289.566,239.432 290.5,240.5C 291.496,245.463 291.663,250.463 291,255.5C 288.76,261.145 287.26,266.979 286.5,273C 287.146,278.417 288.646,283.584 291,288.5C 291.837,292.295 291.504,295.961 290,299.5C 288.66,295.49 287.327,291.49 286,287.5C 283.209,282.291 280.209,282.291 277,287.5C 274.741,297.618 276.074,307.285 281,316.5C 282.708,318.543 284.708,320.21 287,321.5C 286.975,330.568 283.641,338.234 277,344.5C 274.231,349.039 271.731,353.706 269.5,358.5C 267.257,359.474 264.924,359.808 262.5,359.5C 262.665,356.15 262.498,352.817 262,349.5C 261.617,348.944 261.117,348.611 260.5,348.5C 259.726,347.853 258.726,347.52 257.5,347.5C 255.645,347.34 254.312,348.007 253.5,349.5C 250.291,352.228 247.791,355.561 246,359.5C 243.924,367.367 242.59,375.367 242,383.5C 240.374,386.128 238.374,388.461 236,390.5C 235.529,392.246 234.862,393.913 234,395.5C 232.082,418.01 230.749,418.01 230,395.5C 227.706,379.525 219.206,368.525 204.5,362.5C 206.333,359.5 208.167,356.5 210,353.5C 210.501,348.83 208.334,346.497 203.5,346.5C 201.366,346.515 199.366,347.015 197.5,348C 191.756,353.654 188.256,360.487 187,368.5C 186.359,359.896 183.025,352.563 177,346.5C 176.333,344.833 176.333,343.167 177,341.5C 182.216,330.685 185.716,319.352 187.5,307.5C 204.992,315.023 216.658,309.69 222.5,291.5C 232.205,290.958 238.039,285.958 240,276.5C 240.667,272.5 240.667,268.5 240,264.5C 235.27,262.435 231.77,263.769 229.5,268.5C 228.635,269.583 227.635,269.749 226.5,269C 224.095,264.552 224.095,260.052 226.5,255.5C 227.562,252.484 228.729,249.484 230,246.5C 232.019,240.398 231.852,234.398 229.5,228.5C 229.833,228.167 230.167,227.833 230.5,227.5C 234.704,230.603 239.371,232.603 244.5,233.5 Z"/></g>
<g><path style="opacity:1" fill="#9ca074" d="M 244.5,233.5 C 247.152,233.41 249.485,234.076 251.5,235.5C 248.848,235.59 246.515,234.924 244.5,233.5 Z"/></g>
<g><path style="opacity:1" fill="#ead051" d="M 292.5,234.5 C 294.813,238.939 295.813,243.773 295.5,249C 294.316,256.531 292.983,264.031 291.5,271.5C 291.662,277.821 293.162,283.821 296,289.5C 296.738,293.402 296.072,297.068 294,300.5C 292.54,303.21 290.54,303.876 288,302.5C 286.152,297.447 284.152,292.447 282,287.5C 279.773,295.986 280.44,304.319 284,312.5C 285.918,315.428 288.585,317.094 292,317.5C 291.993,322.213 291.327,326.88 290,331.5C 283.239,341.103 277.072,351.103 271.5,361.5C 267.235,362.439 262.902,362.772 258.5,362.5C 258.094,348.803 254.928,348.803 249,362.5C 248.11,369.857 247.11,377.19 246,384.5C 242.947,387.887 240.28,391.553 238,395.5C 238.058,403.379 236.892,411.045 234.5,418.5C 232.994,419.747 231.494,419.747 230,418.5C 229.333,417.167 228.667,415.833 228,414.5C 228.524,401.453 225.858,389.12 220,377.5C 215.415,370.42 208.915,366.42 200.5,365.5C 200.338,363.473 200.505,361.473 201,359.5C 202.833,356.5 204.667,353.5 206.5,350.5C 203.104,348.87 200.271,349.537 198,352.5C 191.909,361.522 188.909,371.522 189,382.5C 188.282,385.234 186.782,385.9 184.5,384.5C 183.851,376.499 183.018,368.499 182,360.5C 180.01,355.187 177.01,350.52 173,346.5C 172.333,344.5 172.333,342.5 173,340.5C 179.048,326.966 183.548,312.966 186.5,298.5C 195.932,307.735 205.432,307.735 215,298.5C 216.837,294.316 218.671,290.15 220.5,286C 229.696,286.81 235.196,282.643 237,273.5C 237.818,270.773 237.652,268.106 236.5,265.5C 234.507,267.666 232.673,269.999 231,272.5C 226.356,273.273 223.023,271.273 221,266.5C 220.229,260.343 221.396,254.677 224.5,249.5C 224.025,252.082 224.692,254.082 226.5,255.5C 224.095,260.052 224.095,264.552 226.5,269C 227.635,269.749 228.635,269.583 229.5,268.5C 231.77,263.769 235.27,262.435 240,264.5C 240.667,268.5 240.667,272.5 240,276.5C 238.039,285.958 232.205,290.958 222.5,291.5C 216.658,309.69 204.992,315.023 187.5,307.5C 185.716,319.352 182.216,330.685 177,341.5C 176.333,343.167 176.333,344.833 177,346.5C 183.025,352.563 186.359,359.896 187,368.5C 188.256,360.487 191.756,353.654 197.5,348C 199.366,347.015 201.366,346.515 203.5,346.5C 208.334,346.497 210.501,348.83 210,353.5C 208.167,356.5 206.333,359.5 204.5,362.5C 219.206,368.525 227.706,379.525 230,395.5C 230.749,418.01 232.082,418.01 234,395.5C 234.862,393.913 235.529,392.246 236,390.5C 238.374,388.461 240.374,386.128 242,383.5C 242.59,375.367 243.924,367.367 246,359.5C 247.791,355.561 250.291,352.228 253.5,349.5C 255.764,348.781 258.097,348.448 260.5,348.5C 261.117,348.611 261.617,348.944 262,349.5C 262.498,352.817 262.665,356.15 262.5,359.5C 264.924,359.808 267.257,359.474 269.5,358.5C 271.731,353.706 274.231,349.039 277,344.5C 283.641,338.234 286.975,330.568 287,321.5C 284.708,320.21 282.708,318.543 281,316.5C 276.074,307.285 274.741,297.618 277,287.5C 280.209,282.291 283.209,282.291 286,287.5C 287.327,291.49 288.66,295.49 290,299.5C 291.504,295.961 291.837,292.295 291,288.5C 288.646,283.584 287.146,278.417 286.5,273C 287.26,266.979 288.76,261.145 291,255.5C 291.663,250.463 291.496,245.463 290.5,240.5C 291.167,238.5 291.833,236.5 292.5,234.5 Z"/></g>
<g><path style="opacity:1" fill="#88967a" d="M 260.5,348.5 C 258.097,348.448 255.764,348.781 253.5,349.5C 254.312,348.007 255.645,347.34 257.5,347.5C 258.726,347.52 259.726,347.853 260.5,348.5 Z"/></g>
<g><path style="opacity:1" fill="#84937c" d="M 229.5,346.5 C 233.135,347.114 236.802,347.448 240.5,347.5C 236.71,348.902 233.044,348.569 229.5,346.5 Z"/></g>
<g><path style="opacity:1" fill="#edd250" d="M 240.5,347.5 C 236.802,347.448 233.135,347.114 229.5,346.5C 226.528,344.359 224.028,341.692 222,338.5C 220.544,332.903 220.211,327.237 221,321.5C 223.269,316.846 226.769,314.346 231.5,314C 233.219,319.126 234.885,324.292 236.5,329.5C 238.497,324.51 240.497,319.51 242.5,314.5C 246.415,312.618 249.248,313.618 251,317.5C 252.445,326.299 251.111,334.632 247,342.5C 245.442,345.021 243.275,346.688 240.5,347.5 Z"/></g>
<g><path style="opacity:1" fill="#185158" d="M 228.5,316.5 C 229.714,320.693 230.88,325.026 232,329.5C 233.94,332.608 236.606,333.275 240,331.5C 241.682,326.434 243.515,321.434 245.5,316.5C 248.309,323.841 247.809,331.174 244,338.5C 235.678,345.044 229.345,343.377 225,333.5C 223.487,327.13 224.653,321.464 228.5,316.5 Z"/></g>
<g><path style="opacity:1" fill="#f5d54f" d="M 250.5,286.5 C 261.314,285.812 264.314,290.312 259.5,300C 250.457,303.292 246.29,300.126 247,290.5C 248.032,288.973 249.199,287.64 250.5,286.5 Z"/></g>
<g><path style="opacity:1" fill="#7a9ea4" d="M 188.5,402.5 C 193.191,403.673 197.858,403.673 202.5,402.5C 202.389,403.117 202.056,403.617 201.5,404C 199.667,404.167 197.833,404.333 196,404.5C 193.134,404.7 190.634,404.033 188.5,402.5 Z"/></g>
</svg>
